<svg xmlns="http://www.w3.org/2000/svg" viewBox="0 0 675.93 258.5"><ellipse cx="321.91" cy="496.52" rx="87.09" ry="124.5" transform="translate(-344.72 -276.12) rotate(-14.3)" fill="#606060"/><ellipse cx="818.16" cy="496.52" rx="124.5" ry="87.09" transform="translate(-97.1 795.72) rotate(-75.7)" fill="#606060"/><ellipse cx="818.16" cy="496.52" rx="124.5" ry="87.09" transform="translate(-97.1 795.72) rotate(-75.7)" fill="#bdccd4" opacity="0.5"/><ellipse cx="804.83" cy="498.41" rx="118.14" ry="76.28" transform="translate(-108.97 784.23) rotate(-75.7)" fill="#bdccd4"/><ellipse cx="321.91" cy="496.52" rx="87.09" ry="124.5" transform="translate(-344.72 -276.12) rotate(-14.3)" fill="#bdccd4" opacity="0.5"/><ellipse cx="339.01" cy="495.03" rx="81" ry="115.79" transform="translate(-343.82 -271.95) rotate(-14.3)" fill="#bdccd4"/><g opacity="0.7"><ellipse cx="321.91" cy="496.52" rx="87.09" ry="124.5" transform="translate(-344.72 -276.12) rotate(-14.3)" fill="#ffc84d" opacity="0.5"/><ellipse cx="339.01" cy="495.03" rx="81" ry="115.79" transform="translate(-343.82 -271.95) rotate(-14.3)" fill="#ffc84d"/><ellipse cx="818.16" cy="496.52" rx="124.5" ry="87.09" transform="translate(-97.1 795.72) rotate(-75.7)" fill="#ffc84d" opacity="0.5"/><ellipse cx="804.83" cy="498.41" rx="118.14" ry="76.28" transform="translate(-108.97 784.23) rotate(-75.7)" fill="#ffc84d"/></g><path d="M483.79,497l.44-1.19c11.21-30.38,25-31.78,25.62-31.82l1-.08,3.5,3.84A48.76,48.76,0,0,0,515,449c-3-18-25.06-23-25.06-23H444l-58-35.27C365.34,375.52,346,371,346,371l-22,1-21.07,2.07c30-1.72,60.6,18.12,81.75,50.81a169.56,169.56,0,0,1,24.47,54.7C425.26,542.8,398,598,364,613c-.05,0,19-5,33-12,7.69-3.85,20-17,24.13-23.82a56.3,56.3,0,0,0,3.95-6.55L461,511l22.92-13.85Z" transform="translate(-232.07 -371)" fill="#606060"/><path d="M509.31,468.21c-2.89.93-12.41,5.58-20.88,27.82l30,30.57c6.26,6.26,15.55,4.06,21.09-1.2s8.62-14.48,0-24.06Z" transform="translate(-232.07 -371)" fill="#606060"/><circle cx="298.93" cy="145" r="4" fill="#fff"/><path d="M656.28,497l-.44-1.19c-11.21-30.38-25-31.78-25.62-31.82l-1-.08-3.51,3.84a49,49,0,0,1-.67-18.77c3-18,25.06-23,25.06-23h45.94l58-35.27c20.68-15.21,40-19.73,40-19.73l22,1,21.06,2.07c-30-1.72-60.59,18.12-81.75,50.81a169.76,169.76,0,0,0-24.46,54.7C714.81,542.8,742.07,598,776.07,613c0,0-19-5-33-12-7.7-3.85-20-17-24.14-23.82a56.4,56.4,0,0,1-3.94-6.55L679.07,511l-22.92-13.85Z" transform="translate(-232.07 -371)" fill="#606060"/><path d="M630.76,468.21c2.89.93,12.41,5.58,20.88,27.82l-30,30.57c-6.27,6.26-15.55,4.06-21.1-1.2-5.38-5.11-8.61-14.48,0-24.06Z" transform="translate(-232.07 -371)" fill="#606060"/><circle cx="377" cy="145" r="4" fill="#fff"/><path d="M644.87,508.57l-20.46,20.84a16.56,16.56,0,0,1-12,5,21.94,21.94,0,0,1-14.71-6.13c-7.21-6.85-10.08-18.67-.2-29.65l20.84-22.86a82,82,0,0,0-96.72,0l20.84,22.86c9.88,11,7,22.8-.2,29.65a21.94,21.94,0,0,1-14.71,6.13,16.56,16.56,0,0,1-12-5l-20.46-20.84a82,82,0,1,0,149.74,0Z" transform="translate(-232.07 -371)" fill="#606060"/><path d="M570,460a81.62,81.62,0,0,1,48.36,15.79l3.26-4.45a87.54,87.54,0,0,0-103.24,0l3.26,4.45A81.62,81.62,0,0,1,570,460Z" transform="translate(-232.07 -371)" fill="#353535"/><path d="M650,506.31l-1-2.18-4.06,4.44a82,82,0,1,1-149.81,0l-4.07-4.44-1,2.18a87.54,87.54,0,1,0,159.89,0Z" transform="translate(-232.07 -371)" fill="#353535"/></svg>