<svg xmlns="http://www.w3.org/2000/svg" viewBox="0 0 904 492"><path d="M683,171c-249.63,0-452,110.14-452,246S433.37,663,683,663s452-110.14,452-246S932.63,171,683,171Zm1.9,236C567.83,407,471.78,354.18,462,286.9c61.49-30,139.52-47.9,224.46-47.9C770.06,239,847,256.36,908,285.47,899.38,353.43,802.79,407,684.9,407Z" transform="translate(-231 -171)" fill="#606060"/><path d="M685.5,243c189.71,0,343.5,85.51,343.5,191S875.21,625,685.5,625,342,539.49,342,434,495.79,243,685.5,243m0-16c-94.43,0-183.45,20.58-250.67,58-33.49,18.62-59.92,40.49-78.57,65C336.18,376.36,326,404.64,326,434s10.18,57.64,30.26,84c18.65,24.52,45.08,46.39,78.57,65,67.22,37.38,156.24,58,250.67,58S869,620.42,936.17,583c33.49-18.62,59.92-40.49,78.57-65,20.08-26.39,30.26-54.67,30.26-84s-10.18-57.64-30.26-84c-18.65-24.52-45.08-46.39-78.57-65C869,247.58,779.93,227,685.5,227Z" transform="translate(-231 -171)" fill="#fff"/><path d="M896.66,283.21c-58.37-25.48-131.94-40.67-211.89-40.67-81.25,0-155.89,15.7-214.7,41.92,9.35,58.87,101.22,105.08,213.2,105.08C796,389.54,888.42,342.67,896.66,283.21Z" transform="translate(-231 -171)" fill="#bdccd4"/><g opacity="0.2"><path d="M907.58,288.3C896.68,354.91,801.15,407,684.9,407,569,407,473.63,355.18,462.32,288.82,388.68,323.85,342,375.89,342,434c0,105.49,153.79,191,343.5,191S1029,539.49,1029,434C1029,375.6,981.85,323.34,907.58,288.3Z" transform="translate(-231 -171)" fill="#fff"/><path d="M896.66,283.21c-58.37-25.48-131.94-40.67-211.89-40.67-81.25,0-155.89,15.7-214.7,41.92,9.35,58.87,101.22,105.08,213.2,105.08C796,389.54,888.42,342.67,896.66,283.21Z" transform="translate(-231 -171)" fill="#bdccd4"/><path d="M907.58,288.3C896.68,354.91,801.15,407,684.9,407,569,407,473.63,355.18,462.32,288.82,388.68,323.85,342,375.89,342,434c0,105.49,153.79,191,343.5,191S1029,539.49,1029,434C1029,375.6,981.85,323.34,907.58,288.3Z" transform="translate(-231 -171)" fill="#ffc84d"/><path d="M896.66,283.21c-58.37-25.48-131.94-40.67-211.89-40.67-81.25,0-155.89,15.7-214.7,41.92,9.35,58.87,101.22,105.08,213.2,105.08C796,389.54,888.42,342.67,896.66,283.21Z" transform="translate(-231 -171)" fill="#ffc84d"/></g><g opacity="0.44"><path d="M907.58,288.29C896.69,354.91,801.16,407,684.9,407,569,407,473.64,355.18,462.32,288.83,388.69,323.86,342,375.89,342,434c0,105.49,153.79,191,343.5,191S1029,539.49,1029,434C1029,375.6,981.86,323.33,907.58,288.29Z" transform="translate(-231 -171)" fill="#b0b0b0"/></g></svg>