<svg xmlns="http://www.w3.org/2000/svg" viewBox="0 0 452 655"><rect x="4.5" y="4.5" width="443" height="646" rx="11" fill="#a99e90" stroke="#000" stroke-miterlimit="10" stroke-width="9"/><rect x="101.5" y="81.5" width="245" height="476" rx="12" fill="#a99e90" stroke="#554f48" stroke-miterlimit="10" stroke-width="16"/><path d="M444,766V319a12,12,0,0,1,12-12H670a12,12,0,0,1,12,12" transform="translate(-336.5 -217.5)" fill="none" stroke="#000" stroke-miterlimit="10" stroke-width="18"/><path d="M654,448v40H466V448H654m9-21H457a12,12,0,0,0-12,12v58a12,12,0,0,0,12,12H663a12,12,0,0,0,12-12V439a12,12,0,0,0-12-12Z" transform="translate(-336.5 -217.5)" fill="#2a2824"/><rect x="113" y="199" width="221" height="73" rx="7.5" fill="#ddd8d3"/><path d="M663,421a3,3,0,0,1,3,3v58a3,3,0,0,1-3,3H457a3,3,0,0,1-3-3V424a3,3,0,0,1,3-3H663m0-9H457a12,12,0,0,0-12,12v58a12,12,0,0,0,12,12H663a12,12,0,0,0,12-12V424a12,12,0,0,0-12-12Z" transform="translate(-336.5 -217.5)" fill="#7f776c"/><rect x="118.5" y="204.5" width="210" height="25" fill="#eeece9"/><rect x="101.5" y="79.5" width="245" height="476" rx="12" fill="none" stroke="#554f48" stroke-miterlimit="10" stroke-width="16"/></svg>