<svg xmlns="http://www.w3.org/2000/svg" viewBox="0 0 283 989"><path d="M661.5,893a121.24,121.24,0,0,0-46-95.19V141A75.72,75.72,0,0,0,540,65.5h0A75.72,75.72,0,0,0,464.5,141V797.81a121.28,121.28,0,0,0-46,96.75c.81,64.37,52.42,117.4,116.75,119.85q2.38.09,4.74.09A121.5,121.5,0,0,0,661.5,893Z" transform="translate(-398.5 -45.5)" fill="#c4cacc"/><path d="M540,65.5A75.72,75.72,0,0,1,615.5,141V797.81A121.5,121.5,0,0,1,540,1014.5q-2.36,0-4.74-.09c-64.33-2.45-115.94-55.48-116.75-119.85a121.28,121.28,0,0,1,46-96.75V141A75.72,75.72,0,0,1,540,65.5h0m0-20A95.61,95.61,0,0,0,444.5,141V788.6a142.71,142.71,0,0,0-31.82,42.6A141.69,141.69,0,0,0,534.5,1034.4c1.83.06,3.68.1,5.5.1a141.5,141.5,0,0,0,95.5-245.91V141A95.61,95.61,0,0,0,540,45.5Z" transform="translate(-398.5 -45.5)" fill="#dae1e4"/><path d="M464.5,204V797.81a121.28,121.28,0,0,0-46,96.75c.81,64.37,52.42,117.4,116.75,119.85q2.38.09,4.74.09a121.5,121.5,0,0,0,75.5-216.69V204" transform="translate(-398.5 -45.5)" fill="#d46a00"/><rect x="161.5" y="511.5" width="76" height="31" fill="#fff" stroke="#fff" stroke-miterlimit="10"/><polyline points="161.5 649.5 161.5 634.5 237.5 634.5 237.5 665.5 161.5 665.5 161.5 649.5" fill="#fff" stroke="#fff" stroke-miterlimit="10"/><rect x="161.5" y="265.5" width="76" height="31" fill="#fff" stroke="#fff" stroke-miterlimit="10"/><rect x="161" y="143" width="76" height="31" fill="#fff" stroke="#fff" stroke-miterlimit="10"/><rect x="161.5" y="388.5" width="76" height="31" fill="#fff" stroke="#fff" stroke-miterlimit="10"/></svg>