<svg xmlns="http://www.w3.org/2000/svg" viewBox="0 0 770.82 694.32"><path d="M404.2,893.15c-129.51,0-199.25-11.94-213.2-36.48-4-7.09-2.84-14-.59-17.79l.5-.85,147-162.81L508,857.29l-25.92,34.56-4.82.15c-25.93.76-50.52,1.15-73.08,1.15Z" transform="translate(-178.32 -238.04)" fill="#c2c2c2"/><path d="M338,690,495,858l-18,24c-26.75.79-50.92,1.15-72.8,1.15C175.7,883.15,199,844,199,844L338,690m-.26-29.57L323.15,676.6l-139,154-1.32,1.47-1,1.7c-3.79,6.37-5.65,17,.5,27.84,7.72,13.59,25.71,23,56.6,29.66,36.65,7.88,92.26,11.88,165.29,11.88,22.66,0,47.36-.39,73.39-1.16l9.63-.28L493,894l18-24,10.06-13.41-11.45-12.25-157-168-14.87-15.91Z" transform="translate(-178.32 -238.04)" fill="#606060"/><path d="M703.43,922.36c-109.22,0-224.7-55.52-343.22-165-97.67-90.24-148.08-185.21-149.83-282.28-1.19-66.63,21.51-121.22,40.77-155.28,20.87-36.92,41.92-58,42.8-58.89a10,10,0,0,1,13.72-.35l616,551a10,10,0,0,1,.91,14c-9.14,10.63-35,37.85-77.73,60.87A298.93,298.93,0,0,1,703.43,922.36Z" transform="translate(-178.32 -238.04)" fill="#c2c2c2"/><path d="M301,268,917,819c-27.31,31.77-101.22,93.36-213.57,93.36C614.18,912.36,500.69,873.51,367,750,81.34,486.09,301,268,301,268m0-20a20,20,0,0,0-14.09,5.81c-.93.92-22.92,22.95-44.47,61.06a333,333,0,0,0-29.59,69.45,301.58,301.58,0,0,0-12.46,90.93c.82,46,12.45,92.15,34.54,137.18,25.49,51.94,65.36,103.17,118.5,152.26,64,59.12,128,103.21,190.29,131.06,54.31,24.29,108,36.61,159.71,36.61A308.94,308.94,0,0,0,851.59,895.2c44.2-23.82,71.07-52.11,80.58-63.16a20,20,0,0,0-1.84-27.95l-616-551A19.94,19.94,0,0,0,301,248Z" transform="translate(-178.32 -238.04)" fill="#606060"/><path d="M866.58,846.16c-40.25,0-95-17.82-158.38-51.54-64-34-132.39-82-197.86-138.74-84.21-73-154.26-152.32-197.22-223.44-21.23-35.13-34.79-66.53-40.31-93.33-6.14-29.8-2.17-53.1,11.82-69.23,12.55-14.49,32.05-21.84,58-21.84,40.26,0,95,17.82,158.39,51.54,64,34,132.38,82,197.85,138.75,84.22,73,154.26,152.32,197.23,223.43,21.22,35.13,34.79,66.53,40.31,93.33,6.14,29.81,2.16,53.1-11.82,69.24C912,838.82,892.49,846.16,866.58,846.16Z" transform="translate(-178.32 -238.04)" fill="#d9d9d9"/><path d="M342.59,258c77.63,0,215.65,71.7,349.69,187.85C864.82,595.38,965.42,761.88,917,817.78c-10.81,12.47-28.12,18.38-50.41,18.38-77.62,0-215.65-71.7-349.69-187.84-172.53-149.49-273.14-316-224.7-371.9C303,264,320.3,258,342.59,258m0-20v0c-28.94,0-51,8.51-65.52,25.29-8.46,9.77-13.84,21.88-16,36-1.89,12.4-1.24,26.47,1.92,41.81,5.75,27.92,19.73,60.38,41.55,96.49,43.49,72,114.25,152.18,199.23,225.81C638.92,780.51,781.32,856.16,866.58,856.16c28.94,0,51-8.5,65.52-25.28,8.47-9.77,13.85-21.88,16-36,1.88-12.4,1.23-26.46-1.93-41.8-5.75-27.92-19.73-60.39-41.54-96.49-43.5-72-114.25-152.18-199.24-225.82C570.25,313.69,427.85,238,342.59,238Z" transform="translate(-178.32 -238.04)" fill="#606060"/><ellipse cx="617.19" cy="545.69" rx="85.18" ry="273.83" transform="translate(-377.7 416.77) rotate(-49.09)" fill="#f2f2f2"/><g opacity="0.4"><g opacity="0.5"><path d="M866.58,846.16c-40.25,0-95-17.82-158.38-51.54-64-34-132.39-82-197.86-138.74-84.21-73-154.26-152.32-197.22-223.44-21.23-35.13-34.79-66.53-40.31-93.33-6.14-29.8-2.17-53.1,11.82-69.23,12.55-14.49,32.05-21.84,58-21.84,40.26,0,95,17.82,158.39,51.54,64,34,132.38,82,197.85,138.75,84.22,73,154.26,152.32,197.23,223.43,21.22,35.13,34.79,66.53,40.31,93.33,6.14,29.81,2.16,53.1-11.82,69.24C912,838.82,892.49,846.16,866.58,846.16Z" transform="translate(-178.32 -238.04)" fill="#ffc84d"/><path d="M342.59,258c77.63,0,215.65,71.7,349.69,187.85C864.82,595.38,965.42,761.88,917,817.78c-10.81,12.47-28.12,18.38-50.41,18.38-77.62,0-215.65-71.7-349.69-187.84-172.53-149.49-273.14-316-224.7-371.9C303,264,320.3,258,342.59,258m0-20v0c-28.94,0-51,8.51-65.52,25.29-8.46,9.77-13.84,21.88-16,36-1.89,12.4-1.24,26.47,1.92,41.81,5.75,27.92,19.73,60.38,41.55,96.49,43.49,72,114.25,152.18,199.23,225.81C638.92,780.51,781.32,856.16,866.58,856.16c28.94,0,51-8.5,65.52-25.28,8.47-9.77,13.85-21.88,16-36,1.88-12.4,1.23-26.46-1.93-41.8-5.75-27.92-19.73-60.39-41.54-96.49-43.5-72-114.25-152.18-199.24-225.82C570.25,313.69,427.85,238,342.59,238Z" transform="translate(-178.32 -238.04)" fill="#606060"/></g><ellipse cx="617.19" cy="545.69" rx="85.18" ry="273.83" transform="translate(-377.7 416.77) rotate(-49.09)" fill="#ffc84d"/></g></svg>