<svg xmlns="http://www.w3.org/2000/svg" viewBox="0 0 300.14 329.24"><path d="M623.61,504.55c-36,0-68.05-30.27-76.24-72-7.48-38.11,7.09-74.91,35.07-91.36l0-.06.84-.41a64.33,64.33,0,0,1,7-3.45L719.12,274.2l1.45-.71.06,0,.46,1,8.57,16.89c-.14.08-1.62.8-1.62.8-22.19,11.29-34,41.39-28,71.61,6.25,31.84,30.59,55.84,56.62,55.84a42.2,42.2,0,0,0,16.64-3.41l9.67-4.1,6.74,18.29-8.06,4c-40.82,20.16-136.76,67.25-145.93,69.05A62.71,62.71,0,0,1,623.61,504.55Z" transform="translate(-535.42 -254.76)" fill="#606060"/><path d="M725,282.45h0l-.09,0,.09,0m-.09,0-1.36.67,1.36-.67m-1.36.67c-25.83,13.11-40.36,46.9-33.38,82.48,7.33,37.35,35.88,63.91,66.43,63.91a51.74,51.74,0,0,0,20.55-4.21v0S642.6,491.83,633.74,493.57a52.91,52.91,0,0,1-10.13,1c-30.55,0-59.1-26.57-66.43-63.91s9.05-72.72,37.33-84.27h0l129-63.2m12.52-28.4-19.84,9.71-1.59.78L586.14,328.19a72.6,72.6,0,0,0-7.41,3.63l-7.7,3.77.26,1C543.7,356.63,529.8,395,537.56,434.49c4.31,22,15.08,42.06,30.33,56.59,15.89,15.14,35.68,23.47,55.72,23.47a72.16,72.16,0,0,0,14-1.36c3.79-.74,8.08-1.58,79.91-36.38,34.42-16.67,68.19-33.35,68.53-33.52l16.08-7.94L796,418.49l-7.23-19.77-19.38,8.22a32.1,32.1,0,0,1-12.73,2.61c-21.34,0-41.46-20.53-46.8-47.77-5.09-25.88,4.46-51.39,22.69-60.73l1.07-.52,16.53-7.76-6.33-17.27-7.69-20.74Z" transform="translate(-535.42 -254.76)" fill="#fff"/><path d="M777.16,425.34a52.76,52.76,0,0,1-10.42,3.23c-34.14,6.7-68.42-21.47-76.56-62.93C683.07,329.4,698.27,295,725,282.45" transform="translate(-535.42 -254.76)" fill="none" stroke="#fff" stroke-width="20"/><path d="M725,282.45h0" transform="translate(-535.42 -254.76)" fill="none" stroke="#fff" stroke-width="20"/><polygon points="135.57 231.24 164.57 217.24 203.57 254.84 203.57 310.06 171.91 310.24 171.91 266.2 135.57 231.24" fill="#606060"/><rect x="155.58" y="317.24" width="61" height="12" fill="#606060"/><ellipse cx="764" cy="348.5" rx="63" ry="76.5" transform="translate(-588.26 -101.03) rotate(-11.11)" fill="#bdccd4" stroke="#4d4d4d" stroke-width="16"/></svg>