<svg xmlns="http://www.w3.org/2000/svg" viewBox="0 0 390 867"><ellipse cx="195.43" cy="76" rx="20.78" ry="76" fill="#606060"/><polygon points="297.91 227 264.22 167 195 167 125.78 167 92.09 227 0 305 195 305 390 305 297.91 227" fill="#606060"/><path d="M309,390l21.34,26V571.09C343.27,607.8,371.79,681.46,387.62,717l74.12,87h66.52l74.12-87c15.8-35.46,44.39-109.29,57.27-145.91V416L681,390Z" transform="translate(-300 -68)" fill="#606060"/><path d="M525.32,880.09V826H464.68v54.09h.43c0,30.33,13.57,54.91,30.32,54.91s30.32-24.58,30.32-54.91Z" transform="translate(-300 -68)" fill="#606060"/><polygon points="195 345 53.5 345 53.5 500.26 81.39 571.55 122.57 645 195 645 267.43 645 308.61 571.55 336.5 500.26 336.5 345 195 345" fill="#bdccd4"/><g opacity="0.3"><polygon points="195 345 53.5 345 53.5 500.26 81.39 571.55 122.57 645 195 645 267.43 645 308.61 571.55 336.5 500.26 336.5 345 195 345" fill="#ffc84d"/></g><path d="M450.18,722.94l-27.81-83.67a7.33,7.33,0,0,1-.29-1.23l-10.87-74a7.28,7.28,0,0,1-.08-1V405h18V562.48l10.7,72.86,27.61,83.06Z" transform="translate(-300 -68)" fill="#606060"/><path d="M537.93,722.94l27.81-83.67A7.33,7.33,0,0,0,566,638l10.87-74a7.28,7.28,0,0,0,.08-1V405H559V562.48l-10.7,72.86L520.7,718.4Z" transform="translate(-300 -68)" fill="#606060"/></svg>