<svg xmlns="http://www.w3.org/2000/svg" viewBox="0 0 608 425.65"><path d="M468.32,616a305,305,0,0,0,71.49,41.5H832.19A305,305,0,0,0,903.68,616Z" transform="translate(-382 -237)" fill="#b5c5cc"/><path d="M468.32,616H903.68a242.27,242.27,0,0,0,41.58-41.5H426.74A242.27,242.27,0,0,0,468.32,616Z" transform="translate(-382 -237)" fill="#bdccd4"/><path d="M426.74,574.5H945.26a198.47,198.47,0,0,0,25-41.5H401.79A198.47,198.47,0,0,0,426.74,574.5Z" transform="translate(-382 -237)" fill="#b5c5cc"/><path d="M401.79,533H970.21a173.88,173.88,0,0,0,12.49-41.5H389.3A173.88,173.88,0,0,0,401.79,533Z" transform="translate(-382 -237)" fill="#bdccd4"/><path d="M387,463.9a167.34,167.34,0,0,0,2.3,27.6H982.7a167.34,167.34,0,0,0,2.3-27.6c0-4.67-.22-9.3-.6-13.9H387.6C387.22,454.6,387,459.23,387,463.9Z" transform="translate(-382 -237)" fill="#b5c5cc"/><path d="M387.6,450H984.4a169.59,169.59,0,0,0-8.8-41.5H396.4A169.59,169.59,0,0,0,387.6,450Z" transform="translate(-382 -237)" fill="#bdccd4"/><path d="M396.4,408.5H975.6A187.79,187.79,0,0,0,955.05,367H417A187.79,187.79,0,0,0,396.4,408.5Z" transform="translate(-382 -237)" fill="#b5c5cc"/><path d="M417,367h538.1a225.79,225.79,0,0,0-35.35-41.5H452.3A225.79,225.79,0,0,0,417,367Z" transform="translate(-382 -237)" fill="#bdccd4"/><path d="M452.3,325.5H919.7A282.19,282.19,0,0,0,861.05,284H511A282.19,282.19,0,0,0,452.3,325.5Z" transform="translate(-382 -237)" fill="#b5c5cc"/><path d="M861.05,284c-44.18-23.72-97.44-38.69-155.17-41.5H666.12c-57.73,2.81-111,17.78-155.17,41.5Z" transform="translate(-382 -237)" fill="#bdccd4"/><path d="M686,242c-165.13,0-299,99.35-299,221.9,0,83.25,61.78,155.78,153.17,193.75H831.83C923.22,619.68,985,547.15,985,463.9,985,341.35,851.13,242,686,242Z" transform="translate(-382 -237)" fill="none" stroke="#606060" stroke-linejoin="round" stroke-width="10"/><g opacity="0.8"><path d="M468.32,616a305,305,0,0,0,71.49,41.5H832.19A305,305,0,0,0,903.68,616Z" transform="translate(-382 -237)" fill="#ffc84d" fill-opacity="0.88"/><path d="M468.32,616H903.68a242.27,242.27,0,0,0,41.58-41.5H426.74A242.27,242.27,0,0,0,468.32,616Z" transform="translate(-382 -237)" fill="#ffc84d"/><path d="M426.74,574.5H945.26a198.47,198.47,0,0,0,25-41.5H401.79A198.47,198.47,0,0,0,426.74,574.5Z" transform="translate(-382 -237)" fill="#ffc84d" fill-opacity="0.88"/><path d="M401.79,533H970.21a173.88,173.88,0,0,0,12.49-41.5H389.3A173.88,173.88,0,0,0,401.79,533Z" transform="translate(-382 -237)" fill="#ffc84d"/><path d="M387,463.9a167.34,167.34,0,0,0,2.3,27.6H982.7a167.34,167.34,0,0,0,2.3-27.6c0-4.67-.22-9.3-.6-13.9H387.6C387.22,454.6,387,459.23,387,463.9Z" transform="translate(-382 -237)" fill="#ffc84d" fill-opacity="0.88"/><path d="M387.6,450H984.4a169.59,169.59,0,0,0-8.8-41.5H396.4A169.59,169.59,0,0,0,387.6,450Z" transform="translate(-382 -237)" fill="#ffc84d"/><path d="M396.4,408.5H975.6A187.79,187.79,0,0,0,955.05,367H417A187.79,187.79,0,0,0,396.4,408.5Z" transform="translate(-382 -237)" fill="#ffc84d" fill-opacity="0.88"/><path d="M417,367h538.1a225.79,225.79,0,0,0-35.35-41.5H452.3A225.79,225.79,0,0,0,417,367Z" transform="translate(-382 -237)" fill="#ffc84d"/><path d="M452.3,325.5H919.7A282.19,282.19,0,0,0,861.05,284H511A282.19,282.19,0,0,0,452.3,325.5Z" transform="translate(-382 -237)" fill="#ffc84d" fill-opacity="0.88"/><path d="M861.05,284c-44.18-23.72-97.44-38.69-155.17-41.5H666.12c-57.73,2.81-111,17.78-155.17,41.5Z" transform="translate(-382 -237)" fill="#ffc84d"/></g></svg>