<svg xmlns="http://www.w3.org/2000/svg" viewBox="0 0 598 415.65"><path d="M686,242c-165.13,0-299,99.35-299,221.9,0,83.25,61.78,155.78,153.17,193.75H831.83C923.22,619.68,985,547.15,985,463.9,985,341.35,851.13,242,686,242Z" transform="translate(-387 -242)" fill="#bdccd4"/><g opacity="0.7"><path d="M686,242c-165.13,0-299,99.35-299,221.9,0,83.25,61.78,155.78,153.17,193.75H831.83C923.22,619.68,985,547.15,985,463.9,985,341.35,851.13,242,686,242Z" transform="translate(-387 -242)" fill="#bdccd4"/><path d="M686,242c-165.13,0-299,99.35-299,221.9,0,83.25,61.78,155.78,153.17,193.75H831.83C923.22,619.68,985,547.15,985,463.9,985,341.35,851.13,242,686,242Z" transform="translate(-387 -242)" fill="#ffc84d"/></g></svg>