<svg xmlns="http://www.w3.org/2000/svg" viewBox="0 0 1040 422"><path d="M1007,606.38H935v-40h72Zm-132,0H803v-40h72Zm-132,0H671v-40h72Zm-132,0H539v-40h72Zm-132,0H407v-40h72Z" transform="translate(-187 -247)" fill="#bdccd4"/><path d="M1187,376.45a19.88,19.88,0,0,0-13,4.79L1036.07,499a20,20,0,1,0,26,30.42L1200,411.66a20,20,0,0,0-13-35.21Z" transform="translate(-187 -247)" fill="#ffc84d"/><path d="M965,297.32A20,20,0,0,0,947.26,308L866.74,459.85a20,20,0,1,0,35.34,18.74l80.52-151.9A20,20,0,0,0,965,297.32Z" transform="translate(-187 -247)" fill="#ffc84d"/><path d="M706.71,267h0a20,20,0,0,0-20,20l.14,167.26a20,20,0,0,0,20,20h0a20,20,0,0,0,20-20L726.71,287A20,20,0,0,0,706.71,267Z" transform="translate(-187 -247)" fill="#ffc84d"/><path d="M449.05,297.32a20,20,0,0,0-17.65,29.37l80.52,151.9a20,20,0,0,0,35.34-18.74L466.74,308A20,20,0,0,0,449.05,297.32Z" transform="translate(-187 -247)" fill="#ffc84d"/><path d="M227,376.45a20,20,0,0,0-13,35.21L352,529.41a20,20,0,1,0,26-30.42L240,381.24A19.88,19.88,0,0,0,227,376.45Z" transform="translate(-187 -247)" fill="#ffc84d"/><path d="M1007,606.38H935v-40h72Zm-132,0H803v-40h72Zm-132,0H671v-40h72Zm-132,0H539v-40h72Zm-132,0H407v-40h72Z" transform="translate(-187 -247)" fill="#bdccd4"/><path d="M1187,376.45a19.88,19.88,0,0,0-13,4.79L1036.07,499a20,20,0,1,0,26,30.42L1200,411.66a20,20,0,0,0-13-35.21Z" transform="translate(-187 -247)" fill="#bdccd4"/><path d="M965,297.32A20,20,0,0,0,947.26,308L866.74,459.85a20,20,0,1,0,35.34,18.74l80.52-151.9A20,20,0,0,0,965,297.32Z" transform="translate(-187 -247)" fill="#bdccd4"/><path d="M706.71,267h0a20,20,0,0,0-20,20l.14,167.26a20,20,0,0,0,20,20h0a20,20,0,0,0,20-20L726.71,287A20,20,0,0,0,706.71,267Z" transform="translate(-187 -247)" fill="#bdccd4"/><path d="M449.05,297.32a20,20,0,0,0-17.65,29.37l80.52,151.9a20,20,0,0,0,35.34-18.74L466.74,308A20,20,0,0,0,449.05,297.32Z" transform="translate(-187 -247)" fill="#bdccd4"/><path d="M227,376.45a20,20,0,0,0-13,35.21L352,529.41a20,20,0,1,0,26-30.42L240,381.24A19.88,19.88,0,0,0,227,376.45Z" transform="translate(-187 -247)" fill="#bdccd4"/><path d="M1187,356.45a39.8,39.8,0,0,0-26,9.58L1023.08,483.78A40,40,0,1,0,1075,544.62l138-117.75a40,40,0,0,0-26-70.42Z" transform="translate(-187 -247)" fill="#bdccd4"/><path d="M965,277.32a40,40,0,0,0-35.37,21.27l-80.52,151.9A40,40,0,0,0,919.75,488l80.52-151.9A40,40,0,0,0,965,277.32Z" transform="translate(-187 -247)" fill="#bdccd4"/><path d="M706.71,247h0a40,40,0,0,0-40,40l.14,167.26a40,40,0,0,0,40,40h0a40,40,0,0,0,40-40L746.71,287A40,40,0,0,0,706.71,247Z" transform="translate(-187 -247)" fill="#bdccd4"/><path d="M449,277.32a40,40,0,0,0-35.31,58.74L494.25,488a40,40,0,0,0,70.68-37.47l-80.52-151.9A40,40,0,0,0,449,277.32Z" transform="translate(-187 -247)" fill="#bdccd4"/><path d="M227,356.45a40,40,0,0,0-26,70.42L339,544.62a40,40,0,1,0,51.93-60.84L253,366A39.8,39.8,0,0,0,227,356.45Z" transform="translate(-187 -247)" fill="#bdccd4"/><rect x="684" y="346" width="46" height="600" transform="translate(1166 -308) rotate(90)" fill="#606060"/><g opacity="0.7"><path d="M1187,356.45a39.8,39.8,0,0,0-26,9.58L1023.08,483.78A40,40,0,1,0,1075,544.62l138-117.75a40,40,0,0,0-26-70.42Z" transform="translate(-187 -247)" fill="#ffc84d"/><path d="M965,277.32a40,40,0,0,0-35.37,21.27l-80.52,151.9A40,40,0,0,0,919.75,488l80.52-151.9A40,40,0,0,0,965,277.32Z" transform="translate(-187 -247)" fill="#ffc84d"/><path d="M706.71,247h0a40,40,0,0,0-40,40l.14,167.26a40,40,0,0,0,40,40h0a40,40,0,0,0,40-40L746.71,287A40,40,0,0,0,706.71,247Z" transform="translate(-187 -247)" fill="#ffc84d"/><path d="M449,277.32a40,40,0,0,0-35.31,58.74L494.25,488a40,40,0,0,0,70.68-37.47l-80.52-151.9A40,40,0,0,0,449,277.32Z" transform="translate(-187 -247)" fill="#ffc84d"/><path d="M227,356.45a40,40,0,0,0-26,70.42L339,544.62a40,40,0,1,0,51.93-60.84L253,366A39.8,39.8,0,0,0,227,356.45Z" transform="translate(-187 -247)" fill="#ffc84d"/><path d="M1187,356.45a39.8,39.8,0,0,0-26,9.58L1023.08,483.78A40,40,0,1,0,1075,544.62l138-117.75a40,40,0,0,0-26-70.42Z" transform="translate(-187 -247)" fill="#ffc84d"/><path d="M965,277.32a40,40,0,0,0-35.37,21.27l-80.52,151.9A40,40,0,0,0,919.75,488l80.52-151.9A40,40,0,0,0,965,277.32Z" transform="translate(-187 -247)" fill="#ffc84d"/><path d="M706.71,247h0a40,40,0,0,0-40,40l.14,167.26a40,40,0,0,0,40,40h0a40,40,0,0,0,40-40L746.71,287A40,40,0,0,0,706.71,247Z" transform="translate(-187 -247)" fill="#ffc84d"/><path d="M449,277.32a40,40,0,0,0-35.31,58.74L494.25,488a40,40,0,0,0,70.68-37.47l-80.52-151.9A40,40,0,0,0,449,277.32Z" transform="translate(-187 -247)" fill="#ffc84d"/><path d="M227,356.45a40,40,0,0,0-26,70.42L339,544.62a40,40,0,1,0,51.93-60.84L253,366A39.8,39.8,0,0,0,227,356.45Z" transform="translate(-187 -247)" fill="#ffc84d"/><path d="M1007,606.38H935v-40h72Zm-132,0H803v-40h72Zm-132,0H671v-40h72Zm-132,0H539v-40h72Zm-132,0H407v-40h72Z" transform="translate(-187 -247)" fill="#ffc84d"/><path d="M1007,606.38H935v-40h72Zm-132,0H803v-40h72Zm-132,0H671v-40h72Zm-132,0H539v-40h72Zm-132,0H407v-40h72Z" transform="translate(-187 -247)" fill="#ffc84d"/></g></svg>