<svg xmlns="http://www.w3.org/2000/svg" viewBox="0 0 1040 422"><path d="M1007,349.62H935v-40h72Zm-132,0H803v-40h72Zm-132,0H671v-40h72Zm-132,0H539v-40h72Zm-132,0H407v-40h72Z" transform="translate(-187 -247)" fill="#bdccd4"/><path d="M1187,539.55a19.88,19.88,0,0,1-13-4.79L1036.07,417a20,20,0,1,1,26-30.42L1200,504.34a20,20,0,0,1-13,35.21Z" transform="translate(-187 -247)" fill="#ffc84d"/><path d="M965,618.68A20,20,0,0,1,947.26,608L866.74,456.15a20,20,0,0,1,35.34-18.74l80.52,151.9A20,20,0,0,1,965,618.68Z" transform="translate(-187 -247)" fill="#ffc84d"/><path d="M706.71,649h0a20,20,0,0,1-20-20l.14-167.26a20,20,0,0,1,20-20h0a20,20,0,0,1,20,20L726.71,629A20,20,0,0,1,706.71,649Z" transform="translate(-187 -247)" fill="#ffc84d"/><path d="M449.05,618.68a20,20,0,0,1-17.65-29.37l80.52-151.9a20,20,0,0,1,35.34,18.74L466.74,608A20,20,0,0,1,449.05,618.68Z" transform="translate(-187 -247)" fill="#ffc84d"/><path d="M227,539.55a20,20,0,0,1-13-35.21L352,386.59a20,20,0,1,1,26,30.42L240,534.76A19.88,19.88,0,0,1,227,539.55Z" transform="translate(-187 -247)" fill="#ffc84d"/><path d="M1007,349.62H935v-40h72Zm-132,0H803v-40h72Zm-132,0H671v-40h72Zm-132,0H539v-40h72Zm-132,0H407v-40h72Z" transform="translate(-187 -247)" fill="#bdccd4"/><path d="M1187,539.55a19.88,19.88,0,0,1-13-4.79L1036.07,417a20,20,0,1,1,26-30.42L1200,504.34a20,20,0,0,1-13,35.21Z" transform="translate(-187 -247)" fill="#bdccd4"/><path d="M965,618.68A20,20,0,0,1,947.26,608L866.74,456.15a20,20,0,0,1,35.34-18.74l80.52,151.9A20,20,0,0,1,965,618.68Z" transform="translate(-187 -247)" fill="#bdccd4"/><path d="M706.71,649h0a20,20,0,0,1-20-20l.14-167.26a20,20,0,0,1,20-20h0a20,20,0,0,1,20,20L726.71,629A20,20,0,0,1,706.71,649Z" transform="translate(-187 -247)" fill="#bdccd4"/><path d="M449.05,618.68a20,20,0,0,1-17.65-29.37l80.52-151.9a20,20,0,0,1,35.34,18.74L466.74,608A20,20,0,0,1,449.05,618.68Z" transform="translate(-187 -247)" fill="#bdccd4"/><path d="M227,539.55a20,20,0,0,1-13-35.21L352,386.59a20,20,0,1,1,26,30.42L240,534.76A19.88,19.88,0,0,1,227,539.55Z" transform="translate(-187 -247)" fill="#bdccd4"/><path d="M1187,559.55a39.8,39.8,0,0,1-26-9.58L1023.08,432.22A40,40,0,1,1,1075,371.38l138,117.75a40,40,0,0,1-26,70.42Z" transform="translate(-187 -247)" fill="#bdccd4"/><path d="M965,638.68a40,40,0,0,1-35.37-21.27l-80.52-151.9A40,40,0,0,1,919.75,428l80.52,151.9A40,40,0,0,1,965,638.68Z" transform="translate(-187 -247)" fill="#bdccd4"/><path d="M706.71,669h0a40,40,0,0,1-40-40l.14-167.26a40,40,0,0,1,40-40h0a40,40,0,0,1,40,40L746.71,629A40,40,0,0,1,706.71,669Z" transform="translate(-187 -247)" fill="#bdccd4"/><path d="M449,638.68a40,40,0,0,1-35.31-58.74L494.25,428a40,40,0,0,1,70.68,37.47l-80.52,151.9A40,40,0,0,1,449,638.68Z" transform="translate(-187 -247)" fill="#bdccd4"/><path d="M227,559.55a40,40,0,0,1-26-70.42L339,371.38a40,40,0,1,1,51.93,60.84L253,550A39.8,39.8,0,0,1,227,559.55Z" transform="translate(-187 -247)" fill="#bdccd4"/><rect x="684" y="-30" width="46" height="600" transform="translate(250 730) rotate(-90)" fill="#606060"/><g opacity="0.6"><path d="M1187,559.55a39.8,39.8,0,0,1-26-9.58L1023.08,432.22A40,40,0,1,1,1075,371.38l138,117.75a40,40,0,0,1-26,70.42Z" transform="translate(-187 -247)" fill="#ffc84d"/><path d="M965,638.68a40,40,0,0,1-35.37-21.27l-80.52-151.9A40,40,0,0,1,919.75,428l80.52,151.9A40,40,0,0,1,965,638.68Z" transform="translate(-187 -247)" fill="#ffc84d"/><path d="M706.71,669h0a40,40,0,0,1-40-40l.14-167.26a40,40,0,0,1,40-40h0a40,40,0,0,1,40,40L746.71,629A40,40,0,0,1,706.71,669Z" transform="translate(-187 -247)" fill="#ffc84d"/><path d="M449,638.68a40,40,0,0,1-35.31-58.74L494.25,428a40,40,0,0,1,70.68,37.47l-80.52,151.9A40,40,0,0,1,449,638.68Z" transform="translate(-187 -247)" fill="#ffc84d"/><path d="M227,559.55a40,40,0,0,1-26-70.42L339,371.38a40,40,0,1,1,51.93,60.84L253,550A39.8,39.8,0,0,1,227,559.55Z" transform="translate(-187 -247)" fill="#ffc84d"/><path d="M1187,559.55a39.8,39.8,0,0,1-26-9.58L1023.08,432.22A40,40,0,1,1,1075,371.38l138,117.75a40,40,0,0,1-26,70.42Z" transform="translate(-187 -247)" fill="#ffc84d"/><path d="M965,638.68a40,40,0,0,1-35.37-21.27l-80.52-151.9A40,40,0,0,1,919.75,428l80.52,151.9A40,40,0,0,1,965,638.68Z" transform="translate(-187 -247)" fill="#ffc84d"/><path d="M706.71,669h0a40,40,0,0,1-40-40l.14-167.26a40,40,0,0,1,40-40h0a40,40,0,0,1,40,40L746.71,629A40,40,0,0,1,706.71,669Z" transform="translate(-187 -247)" fill="#ffc84d"/><path d="M449,638.68a40,40,0,0,1-35.31-58.74L494.25,428a40,40,0,0,1,70.68,37.47l-80.52,151.9A40,40,0,0,1,449,638.68Z" transform="translate(-187 -247)" fill="#ffc84d"/><path d="M227,559.55a40,40,0,0,1-26-70.42L339,371.38a40,40,0,1,1,51.93,60.84L253,550A39.8,39.8,0,0,1,227,559.55Z" transform="translate(-187 -247)" fill="#ffc84d"/><path d="M1007,349.62H935v-40h72Zm-132,0H803v-40h72Zm-132,0H671v-40h72Zm-132,0H539v-40h72Zm-132,0H407v-40h72Z" transform="translate(-187 -247)" fill="#ffc84d"/><path d="M1007,349.62H935v-40h72Zm-132,0H803v-40h72Zm-132,0H671v-40h72Zm-132,0H539v-40h72Zm-132,0H407v-40h72Z" transform="translate(-187 -247)" fill="#ffc84d"/></g></svg>