<svg xmlns="http://www.w3.org/2000/svg" viewBox="0 0 896.34 892.91"><path d="M448.5,660.5l-93,159s-26-5-30,17,11.5,46.5,31,59c11.29,7.24,68.48,30.93,84,3,5-9,3-18-2-32l96-155Z" transform="translate(-123.05 -133.92)" fill="#606060"/><path d="M911,771.4c38.3-58.38,62.38-117.91,85.46-191.89,2.51-8.51-639-403.94-639-403.94a865.13,865.13,0,0,0-124.37,162.2l-9.76,19.55C177.61,584,722.3,907.5,911,771.4Z" transform="translate(-123.05 -133.92)" fill="#878787"/><path d="M345,188S999,571,996.49,579.51C959.7,697.44,920.38,778.64,825,877c-81.79,82.35-192.2,129.84-302.24,129.84C399.42,1006.83,276.54,947.15,195,810,61.54,588.72,212,338,345,188m-4.07-25.56L330,174.73c-58.68,66.17-137.33,170.37-178.87,291-20.92,60.77-30.25,119.88-27.72,175.7,2.88,63.57,21.18,123.73,54.38,178.81,40.85,68.67,93.15,121.48,155.48,157a377,377,0,0,0,92.7,37.51,389.1,389.1,0,0,0,96.75,12.1c115.41,0,230.75-49.48,316.43-135.75l.08-.08.09-.09c47.69-49.18,82.91-95.45,110.83-145.59,24.75-44.46,44.31-92.27,65.4-159.86l0-.15,0-.15c1.43-4.84,2.28-14.26-8-22.86-1.62-1.36-3.71-2.93-6.58-4.95-4.84-3.4-11.74-8-21.1-14-16.85-10.77-41.7-26.16-73.85-45.73-54-32.86-129.45-78.05-224.26-134.3C520.52,267.63,356.74,171.7,355.11,170.74l-14.18-8.3Z" transform="translate(-123.05 -133.92)" fill="#606060"/><path d="M890.09,646.62c-85.32,0-202.38-41.09-313.15-109.91-87.66-54.46-161.48-119.81-207.85-184-48.15-66.65-61.26-124.94-36.92-164.13,18.16-29.22,55.29-44.67,107.38-44.67,85.32,0,202.38,41.09,313.15,109.9,87.66,54.47,161.48,119.81,207.84,184,48.16,66.66,61.27,125,36.93,164.13C979.31,631.17,942.18,646.62,890.09,646.62Z" transform="translate(-123.05 -133.92)" fill="#bdccd4"/><path d="M439.55,153.92c80.37,0,194.73,38.11,307.87,108.4,179,111.23,287.17,260.92,241.55,334.35-16.79,27-52.07,40-98.88,40-80.37,0-194.74-38.11-307.87-108.4C403.19,417,295.05,267.3,340.67,193.87c16.79-27,52.07-40,98.88-40m20-20h-20c-70.41,0-101.87,26.86-115.87,49.4C297.05,226.18,310.3,288.42,361,358.58c47.11,65.21,121.93,131.49,210.67,186.63,55.81,34.67,114.67,63.19,170.22,82.46,54.58,18.94,105.83,29,148.21,29,70.4,0,101.87-26.87,115.87-49.4,26.63-42.86,13.38-105.1-37.31-175.26C921.54,366.75,846.72,300.47,758,245.33c-55.81-34.67-114.67-63.19-170.22-82.46-46.25-16.05-90.11-25.69-128.21-28.26v-.69Z" transform="translate(-123.05 -133.92)" fill="#606060"/><path d="M792.54,549c-49.37,0-116.72-23.53-180.16-62.94C561.08,454.18,518.16,415.8,491.54,378c-25.4-36.08-32.88-68.18-20.51-88.09,11.87-19.1,38.27-23.11,58.32-23.11,49.37,0,116.71,23.53,180.15,62.95,51.31,31.87,94.23,70.25,120.85,108.07,25.4,36.07,32.87,68.17,20.51,88.08C839,545,812.59,549,792.54,549Z" transform="translate(-123.05 -133.92)" fill="#bdccd4"/><path d="M529.36,271.79c48.47,0,114.82,23.25,177.5,62.19,50.75,31.53,93.16,69.43,119.4,106.7,24.19,34.36,31.61,64.45,20.35,82.57C836,540.4,811.32,544,792.54,544,744.06,544,677.7,520.75,615,481.81c-50.75-31.53-93.15-69.42-119.4-106.7-24.18-34.35-31.6-64.45-20.34-82.57,10.65-17.15,35.28-20.75,54.08-20.75h0m0-10c-29.49,0-51.87,8.26-62.57,25.47-28.27,45.52,35.73,136.42,143,203,66.67,41.42,134.34,63.7,182.8,63.7,29.48,0,51.87-8.25,62.56-25.47,28.28-45.51-35.73-136.42-143-203-66.66-41.42-134.33-63.7-182.79-63.7Z" transform="translate(-123.05 -133.92)" fill="#606060"/></svg>