<svg xmlns="http://www.w3.org/2000/svg" viewBox="0 0 917.88 609"><path d="M176.25,455H163.57a52.5,52.5,0,1,0-85.39,0H65.5a7.5,7.5,0,0,0,0,15H80.88V981h80V470h15.37a7.5,7.5,0,0,0,0-15Z" transform="translate(-58 -372)" fill="#646464"/><rect x="37.88" y="98" width="50" height="496" fill="#9b9c9e"/><path d="M968.38,455H955.69a52.5,52.5,0,1,0-85.38,0H857.62a7.5,7.5,0,1,0,0,15H873V981h80V470h15.38a7.5,7.5,0,1,0,0-15Z" transform="translate(-58 -372)" fill="#646464"/><rect x="830" y="98" width="50" height="496" fill="#9b9c9e"/><path d="M873,622" transform="translate(-58 -372)" fill="none" stroke="#646464" stroke-miterlimit="10" stroke-width="25"/><path d="M424,394.43a13,13,0,0,0-13,13V948h26V407.43A13,13,0,0,0,424,394.43Z" transform="translate(-58 -372)" fill="#646464"/><path d="M318,948V429.45a13,13,0,0,1,26,0V948" transform="translate(-58 -372)" fill="#646464"/><path d="M229,948V467.5a13,13,0,0,1,26,0V948" transform="translate(-58 -372)" fill="#646464"/><path d="M597,948V408a13,13,0,0,1,26,0V948" transform="translate(-58 -372)" fill="#646464"/><path d="M504,948V388a13,13,0,0,1,26,0V948" transform="translate(-58 -372)" fill="#646464"/><path d="M779,948V468a13,13,0,0,1,26,0V948" transform="translate(-58 -372)" fill="#646464"/><path d="M686,948V430a13,13,0,0,1,26,0V948" transform="translate(-58 -372)" fill="#646464"/><path d="M873,551.08c-127.2-4-228.8-101.7-356-105.66" transform="translate(-58 -372)" fill="none" stroke="#646464" stroke-miterlimit="10" stroke-width="25"/><path d="M881,626.62c-127.2-4-228.8-101.7-356-105.67" transform="translate(-58 -372)" fill="none" stroke="#646464" stroke-miterlimit="10" stroke-width="25"/><path d="M160,551.08c127.2-4,228.8-101.7,356-105.66" transform="translate(-58 -372)" fill="none" stroke="#646464" stroke-miterlimit="10" stroke-width="25"/><path d="M152,626.62c127.2-4,228.8-101.7,356-105.67" transform="translate(-58 -372)" fill="none" stroke="#646464" stroke-miterlimit="10" stroke-width="25"/><rect x="102" y="477" width="713" height="28" fill="#646464"/><rect x="102" y="550" width="713" height="28" fill="#646464"/></svg>