<svg xmlns="http://www.w3.org/2000/svg" viewBox="0 0 918 704"><path d="M176.25,455H163.57a52.5,52.5,0,1,0-85.39,0H65.5a7.5,7.5,0,0,0,0,15H80.88V981h80V470h15.37a7.5,7.5,0,0,0,0-15Z" transform="translate(-58 -300)" fill="#646464"/><rect x="37.88" y="170" width="50" height="496" fill="#9b9c9e"/><path d="M968.38,455H955.69a52.5,52.5,0,1,0-85.38,0H857.62a7.5,7.5,0,1,0,0,15H873V981h80V470h15.38a7.5,7.5,0,1,0,0-15Z" transform="translate(-58 -300)" fill="#646464"/><rect x="830" y="170" width="50" height="496" fill="#9b9c9e"/><path d="M873,622" transform="translate(-58 -300)" fill="none" stroke="#646464" stroke-miterlimit="10" stroke-width="25"/><rect width="918" height="704" fill="none"/><path d="M426,300a13,13,0,0,0-13,13v56.47a231.17,231.17,0,0,0-47,22.93V355a13,13,0,0,0-26,0v55.65c-13.2,10.17-25.73,21.11-38,32.15V394a13,13,0,0,0-26,0v72.33c-12.2,10.94-24.38,21.46-37,31V450a13,13,0,0,0-26,0v64.89c-17.71,10.48-36.73,18.56-58.16,22.9l4.95,24.5A203.64,203.64,0,0,0,213,543.4v50.45a186.29,186.29,0,0,1-64.5,20.34l3,24.82A209.2,209.2,0,0,0,213,621.73V858.41q-26.73-4-53.47-7.95l0,28.16Q186.29,883,213,887.41v46q-26.68-4.83-53.37-9.62,0,14,0,28.06c88.69,16.27,177.41,32.33,265.87,49.85v-.18L439,1004V313A13,13,0,0,0,426,300ZM413,873v15.76l-47-7.2V506.89a193.11,193.11,0,0,1,47-22.33Zm-73,4.6-38-5.78V558.51c12.68-11.42,25.15-22.6,38-32.84Zm-64-9.72q-18.5-2.8-37-5.58V607.9a326.92,326.92,0,0,0,37-26.67Zm-37,23.84q18.5,3.07,37,6.19v47q-18.5-3.4-37-6.76Zm63,10.56q19,3.19,38,6.43v48q-19-3.54-38-7.05ZM366,915v-1.87q23.5,4,47,8v49.33q-23.49-4.49-47-8.9Zm47-518.85v62.38a205.48,205.48,0,0,0-47,19.29V422.43C380.69,412,396.11,403,413,396.15ZM307,472c11.07-10.06,22-20,33-29.29v51.63c-13.3,9.5-25.82,19.94-38,30.62V476.54Zm-31,27.52v48.7A393.78,393.78,0,0,1,239,578V528A410.34,410.34,0,0,0,276,499.56Z" transform="translate(-58 -300)" fill="#646464"/><path d="M881.47,639l3-24.82A186.36,186.36,0,0,1,820,593.85V543.4a203.64,203.64,0,0,0,53.21,18.89l4.95-24.5c-21.43-4.34-40.45-12.42-58.16-22.9V450a13,13,0,0,0-26,0v47.32c-12.62-9.53-24.8-20.05-37-31V394a13,13,0,0,0-26,0v48.8c-12.27-11-24.8-22-38-32.15V355a13,13,0,0,0-26,0v37.4a231.17,231.17,0,0,0-47-22.93V313a13,13,0,0,0-26,0v691l13.46-2.48v.18c88.46-17.52,177.18-33.58,265.87-49.85q0-14,0-28.06-26.68,4.8-53.37,9.62v-46q26.71-4.42,53.44-8.79l0-28.16q-26.73,3.93-53.47,7.95V621.73A209.2,209.2,0,0,0,881.47,639ZM667,915v46.59q-23.5,4.41-47,8.9V921.16q23.5-4,47-8Zm0-33.44-47,7.2V484.56a193.11,193.11,0,0,1,47,22.33Zm0-403.74a205.48,205.48,0,0,0-47-19.29V396.15c16.89,6.8,32.31,15.83,47,26.28Zm64,471.85q-19,3.51-38,7.05v-48q19-3.23,38-6.43Zm0-77.85-38,5.78V525.67c12.85,10.24,25.32,21.41,38,32.84ZM731,525c-12.18-10.68-24.7-21.12-38-30.62V442.75c11.07,9.33,22,19.23,33,29.29l5,4.5Zm63,413.13q-18.51,3.36-37,6.76v-47q18.5-3.1,37-6.19Zm0-75.83q-18.5,2.78-37,5.58V581.23a326.92,326.92,0,0,0,37,26.67ZM794,578a393.78,393.78,0,0,1-37-29.71v-48.7A410.34,410.34,0,0,0,794,528Z" transform="translate(-58 -300)" fill="#646464"/></svg>