<svg xmlns="http://www.w3.org/2000/svg" viewBox="0 0 307.65 782.5"><path d="M520,898.5c-37.2,0-72.31-5.23-98.85-14.73C383.42,870.26,375.5,853.06,375.5,841L375,187.6c-.25-2.72-.21-8.13,0-21.19.07-12.08,14.19-19.68,47.15-25.39,26.08-4.53,60.66-7,97.35-7s71.27,2.49,97.35,7c32.92,5.7,47,13.29,47.15,25.34l.5,19.64a35.08,35.08,0,0,1-.5,5l.5,650c0,12.07-7.92,29.27-45.65,42.78C592.31,893.27,557.2,898.5,520,898.5Z" transform="translate(-365.85 -125)" fill="#606060"/><path d="M519.5,143c74.83,0,135.5,10.52,135.5,23.5l.5,19.5a33.77,33.77,0,0,1-.5,4.25L655.5,841c0,26.79-60.67,48.5-135.5,48.5S384.5,867.79,384.5,841L384,187c-.32-.66,0-20.5,0-20.5,0-13,60.67-23.5,135.5-23.5m0-18c-37.19,0-72.31,2.54-98.89,7.15-13.73,2.38-24.76,5.26-32.79,8.55A46.86,46.86,0,0,0,375.11,148c-7.78,6.6-9.07,14.18-9.11,18.25,0,.68-.08,5.3-.12,10.08-.05,5.53-.07,9,.12,11.62l.5,653c0,8.3,2.95,20.7,17,32.61,8.48,7.17,20.12,13.44,34.6,18.62,27.49,9.84,63.67,15.26,101.88,15.26s74.39-5.42,101.88-15.26c14.48-5.18,26.12-11.45,34.6-18.62,14.07-11.91,17-24.31,17-32.62L673,191.7a40.7,40.7,0,0,0,.5-5.7v-.46L673,166.15c-.07-4.1-1.41-11.58-9.11-18.12a46.86,46.86,0,0,0-12.71-7.33c-8-3.29-19.06-6.17-32.79-8.55-26.58-4.61-61.7-7.15-98.89-7.15Z" transform="translate(-365.85 -125)" fill="#606060"/><path d="M520,209.5c-73.27,0-133.43-9.13-135.91-21.69H384l.5,147.69c0,18.23,60.67,33,135.5,33s135.5-14.77,135.5-33V187.81h-.4C649.78,199.94,591.33,209.5,520,209.5Z" transform="translate(-365.85 -125)" fill="#bdccd4"/><ellipse cx="152.65" cy="35.5" rx="119.5" ry="21.19" fill="#bdccd4"/><g opacity="0.3"><path d="M520,209.5c-73.27,0-133.43-9.13-135.91-21.69H384l.5,147.69c0,18.23,60.67,33,135.5,33s135.5-14.77,135.5-33V187.81h-.4C649.78,199.94,591.33,209.5,520,209.5Z" transform="translate(-365.85 -125)" fill="#ffc84d"/><ellipse cx="152.65" cy="35.5" rx="119.5" ry="21.19" fill="#ffc84d"/></g></svg>